# xmcd
#
# Track frame offsets: 
#        150
#        15761
#        24113
#        36321
#        47926
#        59644
#        70204
#        82312
#        95874
#        108881
#
# Disc length: 1635 seconds
#
# Revision: 0
# Processed by: cddbd v1.5.2PL0 Copyright (c) Steve Scherf et al.
# Submitted via: ExactAudioCopy v0.99pb4
#
DISCID=8206610a
DTITLE=Various Artist - Country Classics
DYEAR=2006
DGENRE=Country
TTITLE0=Willie Nelson - Mamas Don't Let Your Babies Grow Up To Be Cowb
TTITLE0=oys
TTITLE1=Johnny Cash - Guess Things Happen That Way
TTITLE2=Merle Haggard - Okie From Muskogee
TTITLE3=George Jones - She Thinks I Still Care
TTITLE4=Patsy Cline - Walkin' After Midnight
TTITLE5=Waylon Jennings - Only Daddy That'll Walk The Line (Live)
TTITLE6=Johnny Paycheck - Take This Job And Shove It
TTITLE7=Glen Campbell - Rhinestone Cowboy
TTITLE8=Tammy Wynette and David Houston - My Elusive Dreams
TTITLE9=Tanya Tucker - Blood Red And Goin' Down
EXTD=
EXTT0=
EXTT1=
EXTT2=
EXTT3=
EXTT4=
EXTT5=
EXTT6=
EXTT7=
EXTT8=
EXTT9=
PLAYORDER=
